# AST/ASF file generated using VICON BodyLanguage
# -----------------------------------------------
:version 1.10
:name VICON
:units
  mass 1.0
  length 0.45
  angle deg
:documentation
   .ast/.asf automatically generated from VICON data using
   VICON BodyBuilder and BodyLanguage model FoxedUp or BRILLIANT.MOD
:root
   order TX TY TZ RX RY RZ
   axis XYZ
   position 0 0 0  
   orientation 0 -0 0 
:bonedata
  begin
     id 1 
     name lhipjoint
     direction 0.515797 -0.759363 0.396637 
     length 2.47888 
     axis 0 -0 0  XYZ
  end
  begin
     id 2 
     name lfemur
     direction 0.34202 -0.939693 0  
     length 6.81885  
     axis 0 -0 20  XYZ
    dof rx ry rz
    limits (-160.0 20.0)
           (-70.0 70.0)
           (-60.0 70.0)
  end
  begin
     id 3 
     name ltibia
     direction 0.342037 -0.939687 0   
     length 7.89258   
     axis 0 -0 20   XYZ
    dof rx
    limits (-10.0 170.0)
  end
  begin
     id 4 
     name lfoot
     direction 0.173497 -0.476678 0.861787   
     length 2.51543   
     axis -90 -1.13533e-015 20   XYZ
    dof rx rz
    limits (-45.0 90.0)
           (-70.0 20.0)
  end
  begin
     id 5 
     name ltoes
     direction 1.53564e-011 -4.21897e-011 1   
     length 1.21388   
     axis -90 -1.13533e-015 20   XYZ
    dof rx
    limits (-90.0 20.0)
  end
  begin
     id 6 
     name rhipjoint
     direction -0.489454 -0.772941 0.403729   
     length 2.43534  
     axis 0 -0 0  XYZ 
  end
  begin
     id 7 
     name rfemur
     direction -0.34202 -0.939693 0   
     length 7.10357   
     axis 0 -0 -20   XYZ
    dof rx ry rz
    limits (-160.0 20.0)
           (-70.0 70.0)
           (-70.0 60.0)
  end
  begin
     id 8 
     name rtibia
     direction -0.34202 -0.939693 0   
     length 9.16127   
     axis 0 -0 -20   XYZ
    dof rx
    limits (-10.0 170.0)
 end
 begin
     id 9 
     name rfoot
     direction -0.270974 -0.748671 0.605033   
     length 1.74894  
     axis -90 1.13533e-015 -20   XYZ
    dof rx rz
    limits (-45.0 90.0)
           (-20.0 70.0)
  end
  begin
     id 10 
     name rtoes
     direction -1.53557e-011 -4.21759e-011 1   
     length 0.787585   
     axis -90 1.13533e-015 -20   XYZ
    dof rx
    limits (-90.0 20.0)
  end
  begin
     id 11 
     name lowerback
     direction -0.0140249 0.999561 0.0260968   
     length 2.16963   
     axis 0 -0 0   XYZ
    dof rx ry rz
    limits (-20.0 45.0)
           (-30.0 30.0)
           (-30.0 30.0)
  end
  begin
     id 12 
     name upperback
     direction 0.00860018 0.999959 -0.002711   
     length 2.1726   
     axis 0 -0 0   XYZ
    dof rx ry rz
    limits (-20.0 45.0)
           (-30.0 30.0)
           (-30.0 30.0)
  end
  begin
     id 13 
     name thorax
     direction 0.015211 0.999782 -0.0143191   
     length 2.17061   
     axis 0 -0 0   XYZ
    dof rx ry rz
    limits (-20.0 45.0)
           (-30.0 30.0)
           (-30.0 30.0)
  end
  begin
     id 14 
     name lowerneck
     direction -0.0140143 0.999447 0.030145   
     length 2.26749   
     axis 0 -0 0   XYZ
    dof rx ry rz
    limits (-20.0 45.0)
           (-30.0 30.0)
           (-30.0 30.0)
  end
  begin
     id 15 
     name upperneck
     direction 0.118062 0.961438 -0.248392   
     length 2.22728   
     axis 0 -0 0   XYZ
    dof rx ry rz
    limits (-20.0 45.0)
           (-30.0 30.0)
           (-30.0 30.0)
  end
  begin
     id 16
     name head
     direction 0.0431885 0.9954 -0.085514  
     length 2.28786  
     axis 0 -0 0   XYZ
    dof rx ry rz
    limits (-20.0 45.0)
           (-30.0 30.0)
           (-30.0 30.0)
  end
  begin
     id 17 
     name lclavicle
     direction 0.912126 0.409548 0.0172323  
     length 4.31571  
     axis 0 -0 0   XYZ
    dof ry rz
    limits (-20.0 10.0)
           (0.0 20.0)
  end
  begin
     id 18 
     name lhumerus
     direction 1 -4.48977e-011 1.93091e-027   
     length 5.13658   
     axis 180 -30 -90   XYZ
    dof rx ry rz
    limits (-60.0 90.0)
           (-90.0 90.0)
           (-90.0 90.0)
  end
  begin
     id 19
     name lradius
     direction 1 -4.48916e-011 6.84018e-027   
     length 3.22473   
     axis 180 -30 -90   XYZ
    dof rx
    limits (-10.0 170.0)
  end
  begin
     id 20
     name lwrist
     direction 1 -4.48987e-011 7.01981e-027   
     length 1.61236   
     axis -4.37994e-015 90 90   XYZ
    dof ry
    limits (-180.0 0.0)
 end
  begin
     id 21 
     name lhand
     direction 1 -4.49037e-011 1.40335e-026   
     length 0.936406   
     axis -8.96029e-015 90 90   XYZ
    dof rx rz
    limits (-90.0 90.0)
           (-45.0 45.0)
  end
  begin
     id 22 
     name lfingers
     direction 1 -4.48886e-011 2.8104e-026   
     length 0.754955   
     axis -1.79203e-014 90 90   XYZ
    dof rx
    limits (0.0 90.0)
  end
  begin
     id 23
     name lthumb
     direction 0.707107 -6.34937e-011 0.707107   
     length 1.08397   
     axis -90 45 -4.48555e-014   XYZ
    dof rx rz
    limits (-45.0 45.0)
           (-45.0 45.0)
  end
  begin
     id 24 
     name rclavicle
     direction -0.947962 0.317997 0.0156638   
     length 4.86918  
     axis 0 -0 0   XYZ 
    dof ry rz
    limits (-10.0 20.0)
           (-20.0 0.0)
  end
  begin
     id 25 
     name rhumerus
     direction -1 -4.48951e-011 2.80534e-018  
     length 5.60911   
     axis 180 30 90   XYZ
    dof rx ry rz
    limits (-90.0 60.0)
           (-90.0 90.0)
           (-90.0 90.0)
  end
  begin
     id 26 
     name rradius
     direction -1 -4.4898e-011 2.11315e-027   
     length 3.38704   
     axis 180 30 90   XYZ
    dof rx
    limits (-10.0 170.0)
  end
  begin
     id 27 
     name rwrist
     direction -1 -4.48933e-011 7.02314e-027   
     length 1.69352   
     axis -4.37994e-015 -90 -90   XYZ
    dof ry
    limits (-180.0 0.0)
  end
  begin
     id 28
     name rhand
     direction -1 -4.48937e-011 1.40458e-026   
     length 0.755878   
     axis -8.96029e-015 -90 -90   XYZ
    dof rx rz
    limits (-90.0 90.0)
           (-45.0 45.0)
  end
  begin
     id 29
     name rfingers
     direction -1 -4.4901e-011 2.80737e-026   
     length 0.609409   
     axis -1.79203e-014 -90 -90   XYZ
    dof rx
    limits (0.0 90.0)
  end
  begin
     id 30
     name rthumb
     direction -0.707107 -6.34968e-011 0.707107   
     length 0.874992   
     axis -90 -45 4.48555e-014   XYZ
    dof rx rz
    limits (-45.0 45.0)
           (-45.0 45.0)
  end
:hierarchy
  begin
    root lhipjoint rhipjoint lowerback
    lhipjoint lfemur
    lfemur ltibia
    ltibia lfoot
    lfoot ltoes
    rhipjoint rfemur
    rfemur rtibia
    rtibia rfoot
    rfoot rtoes
    lowerback upperback
    upperback thorax
    thorax lowerneck lclavicle rclavicle
    lowerneck upperneck
    upperneck head
    lclavicle lhumerus
    lhumerus lradius
    lradius lwrist
    lwrist lhand lthumb
    lhand lfingers
    rclavicle rhumerus
    rhumerus rradius
    rradius rwrist
    rwrist rhand rthumb
    rhand rfingers
  end

#!OML:ASF C:\ViconDB\ViconDB\414\Spring2016\041811\Spring2016.ASF
:FULLY-SPECIFIED
:DEGREES
62
root 11.1251 17.75 18.6581 15.2802 -87.8327 -15.051
lowerback 2.12167 -0.822448 -3.82387
upperback 0.509741 -1.18614 -0.109036
thorax -0.591097 -0.591556 2.06119
lowerneck 4.10996 -11.6203 -27.4961
upperneck 16.9637 -21.5643 24.7935
head 10.6544 -11.3149 11.1218
rclavicle -9.81499e-016 -7.15625e-015
rhumerus 0.648368 -24.958 -0.708745
rradius 66.7029
rwrist 16.7711
rhand -56.5095 -23.8457
rfingers 7.12502
rthumb -28.823 -51.6398
lclavicle -9.81499e-016 -7.15625e-015
lhumerus -6.75846 7.85176 2.44494
lradius 46.2533
lwrist 5.02624
lhand -45.3989 35.8929
lfingers 7.12502
lthumb -18.1674 65.0645
rfemur 165.956 32.7094 -176.327
rtibia 33.6758
rfoot -18.3826 -47.8206
rtoes -28.1751
lfemur -12.4499 -4.24492 -8.08802
ltibia 39.1607
lfoot -27.8046 4.39199
ltoes -16.2501
63
root 11.1247 17.7504 18.6765 13.9693 -87.9754 -13.7269
lowerback 2.15103 -0.803467 -3.89025
upperback 0.493668 -1.165 -0.176536
thorax -0.625489 -0.580233 2.02926
lowerneck 4.18014 -11.5756 -27.5244
upperneck 16.9203 -21.5507 24.9349
head 10.646 -11.3156 11.1956
rclavicle -6.16232e-015 -9.54166e-015
rhumerus 0.652273 -24.8318 -0.735685
rradius 66.812
rwrist 16.4091
rhand -56.4492 -24.0265
rfingers 7.12502
rthumb -28.7654 -51.8304
lclavicle -6.16232e-015 -9.54166e-015
lhumerus -6.94943 7.77426 2.37174
lradius 46.4107
lwrist 5.1949
lhand -45.4934 35.9029
lfingers 7.12502
lthumb -18.2584 65.066
rfemur 166.012 31.3749 -176.554
rtibia 33.6065
rfoot -16.6149 -47.768
rtoes -28.1855
lfemur -12.4595 -4.12491 -8.24804
ltibia 39.2302
lfoot -27.8046 4.39199
ltoes -16.2501
64
root 11.1238 17.7471 18.6946 15.9248 -88.0309 -15.7056
lowerback 2.1695 -0.776785 -3.86239
upperback 0.508364 -1.12927 -0.166832
thorax -0.62338 -0.562673 2.02294
lowerneck 4.28688 -11.5862 -27.5381
upperneck 16.8358 -21.5924 24.9945
head 10.6193 -11.3422 11.2175
rclavicle 2.36057e-016 2.78299e-015
rhumerus 0.57741 -24.899 -0.649607
rradius 66.8948
rwrist 16.3664
rhand -56.313 -23.6589
rfingers 7.12502
rthumb -28.6353 -51.4848
lclavicle 2.36057e-016 2.78299e-015
lhumerus -6.97251 8.12458 2.50006
lradius 46.4147
lwrist 5.02248
lhand -45.2135 35.7387
lfingers 7.12502
lthumb -17.9891 64.9268
rfemur 166.082 31.7764 -176.496
rtibia 33.5526
rfoot -17.3844 -47.827
rtoes -28.3433
lfemur -12.4548 -4.08117 -8.25629
ltibia 39.3065
lfoot -27.8046 4.39199
ltoes -16.2501
65
root 11.1205 17.7431 18.7112 13.2155 -88.0886 -13.0445
lowerback 2.14949 -0.790295 -3.93033
upperback 0.552489 -1.1483 -0.247303
thorax -0.565988 -0.574198 1.97802
lowerneck 4.33509 -11.5705 -27.5165
upperneck 16.8036 -21.6026 25.0802
head 10.6119 -11.3496 11.2518
rclavicle 2.86995e-015 8.34896e-015
rhumerus 0.589835 -24.9246 -0.735387
rradius 66.9901
rwrist 16.2354
rhand -56.2777 -23.9544
rfingers 7.12502
rthumb -28.6016 -51.7859
lclavicle 2.86995e-015 8.34896e-015
lhumerus -7.15456 8.17136 2.4522
lradius 46.5531
lwrist 5.41336
lhand -45.3455 35.7706
lfingers 7.12502
lthumb -18.1161 64.9469
rfemur 166.066 31.7988 -176.685
rtibia 33.4798
rfoot -17.4133 -47.8152
rtoes -28.2235
lfemur -12.4092 -3.98971 -8.43517
ltibia 39.3676
lfoot -27.8046 4.39199
ltoes -16.2501
66
root 11.1198 17.7434 18.7273 11.1408 -88.1043 -10.995
lowerback 2.24919 -0.807808 -3.97283
upperback 0.518362 -1.1789 -0.297442
thorax -0.655169 -0.587403 1.95318
lowerneck 4.42065 -11.5553 -27.5455
upperneck 16.801 -21.6357 25.1668
head 10.6224 -11.3752 11.2945
rclavicle -4.96962e-016 -3.18055e-015
rhumerus 0.55327 -24.8331 -0.740223
rradius 67.1355
rwrist 16.0081
rhand -56.1935 -23.8593
rfingers 7.12502
rthumb -28.5211 -51.7044
lclavicle -4.96962e-016 -3.18055e-015
lhumerus -7.25528 8.31191 2.50508
lradius 46.5762
lwrist 5.34363
lhand -45.2912 35.7412
lfingers 7.12502
lthumb -18.0638 64.9224
rfemur 166.037 30.7088 -176.934
rtibia 33.4019
rfoot -15.9363 -47.6734
rtoes -28.363
lfemur -12.4117 -3.9398 -8.58012
ltibia 39.426
lfoot -27.8046 4.39199
ltoes -16.2501
67
root 11.1252 17.7431 18.7403 12.6996 -88.0479 -12.6285
lowerback 2.41369 -0.810687 -3.93561
upperback 0.531461 -1.18961 -0.298386
thorax -0.734016 -0.591595 1.93443
lowerneck 4.49352 -11.5726 -27.5307
upperneck 16.7499 -21.692 25.2362
head 10.617 -11.4055 11.3125
rclavicle -8.0632e-015 -7.55382e-015
rhumerus 0.455267 -24.8332 -0.713438
rradius 67.2595
rwrist 15.9274
rhand -56.1067 -24.0896
rfingers 7.12502
rthumb -28.4382 -51.9486
lclavicle -8.0632e-015 -7.55382e-015
lhumerus -7.38171 8.21218 2.52954
lradius 46.6704
lwrist 5.47522
lhand -45.3432 36.3703
lfingers 7.12502
lthumb -18.1138 65.5469
rfemur 165.981 29.8924 -177.005
rtibia 33.3126
rfoot -14.7341 -47.5594
rtoes -28.1989
lfemur -12.422 -3.93686 -8.55276
ltibia 39.4852
lfoot -27.8046 4.39199
ltoes -16.2501
68
root 11.12 17.7444 18.756 12.6892 -88.0029 -12.5522
lowerback 2.26211 -0.82994 -3.91463
upperback 0.547887 -1.20745 -0.325271
thorax -0.632127 -0.602719 1.89265
lowerneck 4.60457 -11.5756 -27.5037
upperneck 16.6458 -21.7442 25.3731
head 10.5926 -11.4353 11.3595
rclavicle 8.24956e-015 7.15625e-015
rhumerus 0.421649 -24.8949 -0.779244
rradius 67.3583
rwrist 15.8727
rhand -56.0783 -23.848
rfingers 7.12502
rthumb -28.4111 -51.7115
lclavicle 8.24956e-015 7.15625e-015
lhumerus -7.41779 8.33234 2.6107
lradius 46.7036
lwrist 5.78556
lhand -45.4221 36.4029
lfingers 7.12502
lthumb -18.1898 65.5724
rfemur 166.062 29.6413 -177.058
rtibia 33.2086
rfoot -14.2542 -47.48
rtoes -28.1419
lfemur -12.5297 -3.89162 -8.60121
ltibia 39.5492
lfoot -27.8046 4.39199
ltoes -16.2501
69
root 11.1202 17.7445 18.7681 13.2336 -87.9998 -13.093
lowerback 2.26659 -0.840012 -3.91269
upperback 0.551772 -1.22091 -0.321239
thorax -0.629774 -0.609538 1.89607
lowerneck 4.66028 -11.5822 -27.5414
upperneck 16.63 -21.7993 25.4697
head 10.6145 -11.468 11.3999
rclavicle 9.96408e-015 -1.59028e-015
rhumerus 0.393871 -24.9174 -0.805614
rradius 67.4636
rwrist 15.8953
rhand -56.0938 -24.2977
rfingers 7.12502
rthumb -28.4259 -52.1588
lclavicle 9.96408e-015 -1.59028e-015
lhumerus -7.54758 8.31763 2.6414
lradius 46.5865
lwrist 5.53837
lhand -45.4265 36.198
lfingers 7.12502
lthumb -18.194 65.3671
rfemur 166.102 29.0692 -177.112
rtibia 33.1121
rfoot -13.4427 -47.3525
rtoes -28.0351
lfemur -12.5896 -3.74141 -8.60729
ltibia 39.6128
lfoot -27.8046 4.39199
ltoes -16.2501
70
root 11.1221 17.743 18.7816 11.8724 -88.0092 -11.6916
lowerback 2.30495 -0.840792 -3.95652
upperback 0.515596 -1.22595 -0.342923
thorax -0.687656 -0.610425 1.89957
lowerneck 4.70419 -11.5926 -27.5435
upperneck 16.6104 -21.8509 25.5485
head 10.6287 -11.4961 11.4262
rclavicle -6.37353e-015 -8.34896e-015
rhumerus 0.355302 -24.9055 -0.820726
rradius 67.5397
rwrist 15.8983
rhand -56.1253 -24.0555
rfingers 7.12502
rthumb -28.456 -51.9115
lclavicle -6.37353e-015 -8.34896e-015
lhumerus -7.64 8.27828 2.70489
lradius 46.5462
lwrist 5.66433
lhand -45.3767 36.0472
lfingers 7.12502
lthumb -18.1461 65.2208
rfemur 166.199 28.6572 -177.219
rtibia 33.0113
rfoot -12.6644 -47.3241
rtoes -27.601
lfemur -12.7006 -3.59324 -8.69837
ltibia 39.6832
lfoot -27.8046 4.39199
ltoes -16.2501
